<?xml version="1.0" encoding="utf-8"?>
<!-- Generator: Adobe Illustrator 24.1.0, SVG Export Plug-In . SVG Version: 6.00 Build 0)  -->
<svg version="1.1" id="Layer_1" xmlns="http://www.w3.org/2000/svg" xmlns:xlink="http://www.w3.org/1999/xlink" x="0px" y="0px"
	 viewBox="0 0 408 316" style="enable-background:new 0 0 408 316;" xml:space="preserve">
<path d="M13.4,288.1L4,309.9h3.7l1.5-3.6h9.6l1.5,3.6H24l-9.4-21.7H13.4z M10.4,303.3l3.6-8.8l3.6,8.8H10.4z M50.7,288.5h3.4v21.7
	H53l-13-14.8v14.5h-3.4v-21.7h1.2l13,14.8V288.5z M82.8,288.5h3.4v21.7h-1.2l-13-14.8v14.5h-3.4v-21.7h1.2l13,14.8V288.5z
	 M104.2,306.8h11v3.1h-14.5v-21.4h14.1v3.1h-10.6v5.5h8v3h-8V306.8z M156.3,298.6h10v6c-1.8,3.3-5.6,5.6-10,5.6
	c-6.4,0-11.3-4.8-11.3-11.1c0-6.3,5-11,11.3-11c3.8,0,6.8,1.7,8.8,4.5l-2.5,2c-1.5-2.1-3.6-3.4-6.4-3.4c-4.6,0-7.7,3.4-7.7,7.9
	c0,4.6,3.2,8,7.9,8c2.9,0,5.1-1.3,6.4-3.2v-2.3h-6.6V298.6z M189.5,288.1c-6.2,0-11.2,4.8-11.2,11c0,6.3,5,11.1,11.2,11.1
	c6.2,0,11.2-4.8,11.2-11.1C200.8,292.9,195.7,288.1,189.5,288.1z M189.6,307.1c-4.4,0-7.7-3.3-7.7-7.9c0-4.5,3.2-7.9,7.7-7.9
	c4.4,0,7.7,3.4,7.7,7.9C197.2,303.7,193.9,307.1,189.6,307.1z M223.9,288.1c-6.2,0-11.2,4.8-11.2,11c0,6.3,5,11.1,11.2,11.1
	c6.2,0,11.2-4.8,11.2-11.1C235.1,292.9,230.1,288.1,223.9,288.1z M223.9,307.1c-4.4,0-7.7-3.3-7.7-7.9c0-4.5,3.2-7.9,7.7-7.9
	c4.4,0,7.7,3.4,7.7,7.9C231.6,303.7,228.3,307.1,223.9,307.1z M261.9,288.5h3.9l-9.4,21.7h-1.2l-9.4-21.7h3.9l6.2,14.9L261.9,288.5z
	 M283,288.1l-9.4,21.7h3.7l1.5-3.6h9.6l1.5,3.6h3.7l-9.4-21.7H283z M280,303.3l3.6-8.8l3.6,8.8H280z M309.5,306.8h11v3.1h-14.5
	v-21.4h14.1v3.1h-10.6v5.5h8v3h-8V306.8z M348.7,295c0-3.9-2.9-6.5-7.3-6.5h-7.8v21.4h3.4v-8.3h3.9l6.1,8.3h3.9l-6.4-8.8
	C347.1,300.1,348.7,297.8,348.7,295z M341.4,298.6h-4.3v-7h4.3c2.4,0,3.8,1.5,3.8,3.5C345.2,297.1,343.8,298.6,341.4,298.6z
	 M360.2,288.5H378v3.1h-7.2v18.3h-3.4v-18.3h-7.2V288.5z M404,304c0,3.8-3.1,6.2-7.2,6.2c-3.6,0-6.4-1.8-8.1-4.6l2.4-1.8
	c1.2,1.8,2.9,3.4,5.6,3.4c2.2,0,3.7-1.1,3.7-3c0-1.7-1.3-2.3-3.1-3.2l-2.4-1.1c-2.8-1.3-5-2.9-5-5.9c0-3.5,3-5.8,6.7-5.8
	c3.1,0,5.6,1.6,6.9,3.8l-2.4,1.8c-1.1-1.7-2.7-2.6-4.5-2.6c-1.7,0-3.2,0.8-3.2,2.6c0,1.6,1.2,2.2,3,3l2.4,1.1
	C402.1,299.4,404,301.1,404,304z M239.6,173.5c0,13.1,0,29.9,0,37.9c0,3-1.6,5.8-4.1,7.4c-5.2,3.2-10.8,6-16.8,8.5
	c-15.3,6.4-33.1,9.6-53.5,9.6h-0.2h-0.2c-20.4,0-38.2-3.2-53.5-9.6c-15.3-6.4-28-14.9-38.1-25.6C63,191.1,55.5,178.9,50.5,165
	c-5-13.9-7.5-28.3-7.5-43.3c0-15.2,2.5-29.8,7.5-43.8c5-14,12.5-26.3,22.6-37c10.1-10.6,22.8-19.1,38.1-25.6
	c15.3-6.4,33.1-9.6,53.5-9.6h0.2h0.2c20.4,0,38.2,3.2,53.5,9.6c1.1,0.5,2.3,1,3.4,1.5l-1.6,4.5C204.6,14.5,186.1,11,165.1,11h-0.2
	h-0.2c-14.8,0-27.7,3.1-38.7,9.3C115,26.5,105.8,34.7,98.5,45c-7.3,10.3-12.7,22.1-16.3,35.5c-3.6,13.3-5.4,27.1-5.4,41.2
	c0,14.1,1.8,27.8,5.4,41c3.6,13.2,9,25,16.3,35.2c7.3,10.2,16.4,18.4,27.5,24.6c11.1,6.2,24,9.3,38.7,9.3h0.2h0.2
	c14.8,0,27.7-3.1,38.7-9.3c4.1-2.3,7.9-4.8,11.5-7.5c3.2-2.5,5.1-6.4,5.1-10.5v-43.8v-5.6l19.2,0c0,0,0,0,0,0h12.9v2.9v2.6
	C245.4,160.6,239.6,166.4,239.6,173.5z M342.4,229.1l-19.5-42.7l-5.6-11.8L263.6,57.7c-3.8-8.3-3.8-17.7-0.1-26l3-6.6l2.4-5.4
	L365,229.1H342.4z"/>
</svg>
